HIERARCHY
ROOT Hips
{
	OFFSET 0.000000 0.000000 0.000000
	CHANNELS 6 Xposition Yposition Zposition Zrotation Yrotation Xrotation 
	JOINT LHipJoint
	{
		OFFSET 0.000000 0.000000 0.000000
		CHANNELS 3 Zrotation Yrotation Xrotation
		JOINT LeftUpLeg
		{
			OFFSET 1.363060 -1.794630 0.839290
			CHANNELS 3 Zrotation Yrotation Xrotation
			JOINT LeftLeg
			{
				OFFSET 2.448110 -6.726130 0.000000
				CHANNELS 3 Zrotation Yrotation Xrotation
				JOINT LeftFoot
				{
					OFFSET 2.562200 -7.039590 0.000000
					CHANNELS 3 Zrotation Yrotation Xrotation
					JOINT LeftToeBase
					{
						OFFSET 0.157640 -0.433110 2.322550
						CHANNELS 3 Zrotation Yrotation Xrotation
						End Site
						{
							OFFSET 0.000000 0.000000 0.000000
						}
					}
				}
			}
		}
	}
	JOINT RHipJoint
	{
		OFFSET 0.000000 0.000000 0.000000
		CHANNELS 3 Zrotation Yrotation Xrotation
		JOINT RightUpLeg
		{
			OFFSET -1.305520 -1.794630 0.839290
			CHANNELS 3 Zrotation Yrotation Xrotation
			JOINT RightLeg
			{
				OFFSET -2.542530 -6.985550 0.000000
				CHANNELS 3 Zrotation Yrotation Xrotation
				JOINT RightFoot
				{
					OFFSET -2.568260 -7.056230 0.000000
					CHANNELS 3 Zrotation Yrotation Xrotation
					JOINT RightToeBase
					{
						OFFSET -0.164730 -0.452590 2.363150
						CHANNELS 3 Zrotation Yrotation Xrotation
						End Site
						{
							OFFSET 0.000000 0.000000 0.000000
						}
					}
				}
			}
		}
	}
	JOINT LowerBack
	{
		OFFSET 0.000000 0.000000 0.000000
		CHANNELS 3 Zrotation Yrotation Xrotation
		JOINT Spine
		{
			OFFSET 0.028270 2.035590 -0.193380
			CHANNELS 3 Zrotation Yrotation Xrotation
			JOINT Spine1
			{
				OFFSET 0.056720 2.048850 -0.042750
				CHANNELS 3 Zrotation Yrotation Xrotation
				JOINT Neck
				{
					OFFSET 0.000000 0.000000 0.000000
					CHANNELS 3 Zrotation Yrotation Xrotation
					JOINT Neck1
					{
						OFFSET -0.054170 1.746240 0.172020
						CHANNELS 3 Zrotation Yrotation Xrotation
						JOINT Head
						{
							OFFSET 0.104070 1.761360 -0.123970
							CHANNELS 3 Zrotation Yrotation Xrotation
							End Site
							{
								OFFSET 0.000000 0.000000 0.000000
							}
						}
					}
				}
				JOINT LeftShoulder
				{
					OFFSET 0.000000 0.000000 0.000000
					CHANNELS 3 Zrotation Yrotation Xrotation
					JOINT LeftArm
					{
						OFFSET 3.362410 1.200890 -0.311210
						CHANNELS 3 Zrotation Yrotation Xrotation
						JOINT LeftForeArm
						{
							OFFSET 4.983000 -0.000000 -0.000000
							CHANNELS 3 Zrotation Yrotation Xrotation
							JOINT LeftHand
							{
								OFFSET 3.483560 -0.000000 -0.000000
								CHANNELS 3 Zrotation Yrotation Xrotation
								JOINT LeftFingerBase
								{
									OFFSET 0.000000 0.000000 0.000000
									CHANNELS 3 Zrotation Yrotation Xrotation
									JOINT LeftHandIndex1
									{
										OFFSET 0.715260 -0.000000 -0.000000
										CHANNELS 3 Zrotation Yrotation Xrotation
										End Site
										{
											OFFSET 0.000000 0.000000 0.000000
										}
									}
								}
								JOINT LThumb
								{
									OFFSET 0.000000 0.000000 0.000000
									CHANNELS 3 Zrotation Yrotation Xrotation
									End Site
									{
										OFFSET 0.000000 0.000000 0.000000
									}
								}
							}
						}
					}
				}
				JOINT RightShoulder
				{
					OFFSET 0.000000 0.000000 0.000000
					CHANNELS 3 Zrotation Yrotation Xrotation
					JOINT RightArm
					{
						OFFSET -3.136600 1.374050 -0.404650
						CHANNELS 3 Zrotation Yrotation Xrotation
						JOINT RightForeArm
						{
							OFFSET -5.241900 -0.000000 -0.000000
							CHANNELS 3 Zrotation Yrotation Xrotation
							JOINT RightHand
							{
								OFFSET -3.444170 -0.000000 -0.000000
								CHANNELS 3 Zrotation Yrotation Xrotation
								JOINT RightFingerBase
								{
									OFFSET 0.000000 0.000000 0.000000
									CHANNELS 3 Zrotation Yrotation Xrotation
									JOINT RightHandIndex1
									{
										OFFSET -0.622530 -0.000000 -0.000000
										CHANNELS 3 Zrotation Yrotation Xrotation
										End Site
										{
											OFFSET 0.000000 0.000000 0.000000
										}
									}
								}
								JOINT RThumb
								{
									OFFSET 0.000000 0.000000 0.000000
									CHANNELS 3 Zrotation Yrotation Xrotation
									End Site
									{
										OFFSET 0.000000 0.000000 0.000000
									}
								}
							}
						}
					}
				}
			}
		}
	}
}
MOTION
Frames: 7
Frame Time: 0.008333
1.173822 17.108650 2.334882 -6.894930 -73.756611 24.336440 -9.876951 -0.564980 3.064051 -7.205171 -15.794036 -29.705768 -0.720955 0.384969 27.326898 2.849398 14.110546 -12.026852 -0.811600 -0.000000 -30.902200 9.420633 0.339525 -1.394602 3.410402 -2.359823 -30.443901 -0.326833 -2.682948 42.352894 -4.373157 -23.927402 6.022571 -6.942500 -0.000000 -67.990100 -5.856502 -2.798463 0.851704 -1.778997 -2.518495 -2.531839 -5.660719 -2.535212 0.635381 10.304585 -15.194923 -9.484337 -0.808108 -0.021349 -0.582574 0.000000 0.000000 0.000000 3.580153 6.738281 1.526777 -44.698169 16.826197 31.040331 -1.614310 -66.749140 0.012315 -6.409014 -7.605563 0.431615 -0.008262 0.090479 0.000000 0.000000 0.000000 0.000000 0.000000 0.000000 0.000000 6.544920 -11.509680 1.864571 56.214021 -6.893892 31.560786 1.909609 53.128886 0.016722 -0.113750 8.243593 -0.014806 0.104324 -0.102637 0.000000 0.000000 0.000000 0.000000 0.000000 0.000000 0.000000 
1.189297 17.105536 2.349835 -7.246747 -73.409103 24.227121 -9.909019 -0.576206 3.004627 -7.173685 -15.804448 -29.256805 -0.722324 0.417831 27.541249 2.814397 13.959276 -12.141383 -0.849300 0.000001 -30.907200 9.458063 0.423091 -1.529889 3.571554 -2.567498 -31.575788 -0.452200 -2.892498 45.208241 -4.354239 -24.080209 6.829563 -7.207800 -0.000000 -67.327500 -5.855030 -2.842611 1.068817 -1.780170 -2.564664 -2.486982 -5.669480 -2.576791 0.623323 10.316193 -15.306379 -9.428412 -0.783248 -0.020087 -0.568399 0.000000 0.000000 0.000000 3.684330 6.575070 1.514381 -44.412197 16.604177 31.055532 -1.592586 -66.940992 0.012214 -6.461548 -7.579060 0.433899 -0.005685 0.092201 0.000000 0.000000 0.000000 0.000000 0.000000 0.000000 0.000000 6.445977 -11.642866 1.839043 56.346282 -7.076517 31.609588 1.886762 53.320816 0.016496 -0.097096 8.252974 -0.013516 0.102563 -0.102653 0.000000 0.000000 0.000000 0.000000 0.000000 0.000000 0.000000 
1.204639 17.102837 2.364149 -7.635743 -73.031082 24.145722 -9.946439 -0.582174 2.951662 -7.119556 -15.786049 -28.814433 -0.725284 0.450965 27.743199 2.770730 13.761971 -12.240479 -0.880100 -0.000001 -30.973800 9.493611 0.503872 -1.676066 3.784870 -2.865012 -32.760247 -0.567938 -3.100995 48.077629 -4.325461 -24.119793 7.345123 -7.326500 -0.000000 -66.526600 -5.833868 -2.894675 1.283239 -1.776604 -2.620142 -2.441722 -5.676608 -2.627528 0.615167 10.332373 -15.449934 -9.369736 -0.755793 -0.018691 -0.553097 0.000000 0.000000 0.000000 3.802223 6.402701 1.497045 -44.118674 16.388177 31.086641 -1.569364 -67.138466 0.012095 -6.523041 -7.557732 0.437180 -0.002767 0.094051 0.000000 0.000000 0.000000 0.000000 0.000000 0.000000 0.000000 6.346563 -11.815713 1.809365 56.450141 -7.256022 31.674350 1.860540 53.565173 0.016265 -0.092564 8.265047 -0.013125 0.100879 -0.102779 0.000000 0.000000 0.000000 0.000000 0.000000 0.000000 0.000000 
1.219845 17.100733 2.377881 -8.063624 -72.622184 24.092320 -9.989580 -0.582290 2.905266 -7.040869 -15.733824 -28.377520 -0.730013 0.484133 27.928119 2.717565 13.514183 -12.321052 -0.902800 0.000000 -31.119700 9.527255 0.580513 -1.835296 4.051121 -3.259847 -33.992871 -0.676292 -3.311194 50.945302 -4.287125 -24.047153 7.524881 -7.283801 -0.000000 -65.631100 -5.792723 -2.954536 1.496060 -1.768476 -2.684854 -2.395984 -5.682817 -2.687365 0.610454 10.353927 -15.623374 -9.307867 -0.726480 -0.017230 -0.536571 0.000000 0.000000 0.000000 3.934702 6.219821 1.474458 -43.818531 16.182028 31.127448 -1.544440 -67.344739 0.011960 -6.593073 -7.541664 0.441257 0.000513 0.096044 0.000000 0.000000 0.000000 0.000000 0.000000 0.000000 0.000000 6.249912 -12.025811 1.775841 56.526178 -7.432263 31.748206 1.831730 53.851360 0.016034 -0.099247 8.281621 -0.013534 0.099281 -0.103006 0.000000 0.000000 0.000000 0.000000 0.000000 0.000000 0.000000 
1.234624 17.099357 2.391027 -8.529400 -72.185641 24.071991 -10.038269 -0.576181 2.866707 -6.935011 -15.642722 -27.952714 -0.736306 0.516483 28.092408 2.654871 13.214667 -12.380343 -0.916300 -0.000000 -31.360200 9.558895 0.652119 -2.005656 4.369038 -3.749809 -35.278888 -0.780143 -3.525031 53.795960 -4.240148 -23.871152 7.351680 -7.080300 0.000001 -64.704900 -5.732538 -3.021546 1.702612 -1.756145 -2.758092 -2.350701 -5.688505 -2.755696 0.609503 10.381111 -15.823623 -9.242652 -0.695878 -0.015759 -0.518757 0.000000 0.000000 0.000000 4.083230 6.028455 1.446366 -43.512950 15.987808 31.173783 -1.517731 -67.561116 0.011810 -6.670163 -7.530043 0.446032 0.004135 0.098193 0.000000 0.000000 0.000000 0.000000 0.000000 0.000000 0.000000 6.158247 -12.269748 1.738675 56.575871 -7.604780 31.825567 1.801214 54.166392 0.015810 -0.115729 8.303421 -0.014643 0.097786 -0.103307 0.000000 0.000000 0.000000 0.000000 0.000000 0.000000 0.000000 
1.248825 17.098833 2.403573 -9.028468 -71.727588 24.085757 -10.091431 -0.563886 2.837667 -6.802272 -15.511453 -27.548472 -0.743710 0.546956 28.233199 2.583573 12.867254 -12.415385 -0.919900 0.000000 -31.712500 9.588557 0.718992 -2.183442 4.732805 -4.328186 -36.628974 -0.882157 -3.744014 56.616636 -4.184688 -23.599201 6.833452 -6.727200 0.000000 -63.762700 -5.657941 -3.095101 1.896212 -1.740686 -2.838982 -2.307116 -5.693993 -2.831772 0.612778 10.414251 -16.046001 -9.174347 -0.664673 -0.014333 -0.499694 0.000000 0.000000 0.000000 4.251794 5.833674 1.412617 -43.205423 15.803221 31.222543 -1.489284 -67.785992 0.011657 -6.749875 -7.525896 0.451503 0.008035 0.100571 0.000000 0.000000 0.000000 0.000000 0.000000 0.000000 0.000000 6.074571 -12.542201 1.697768 56.601864 -7.774004 31.900999 1.769714 54.497284 0.015592 -0.138724 8.327899 -0.016249 0.096376 -0.103631 0.000000 0.000000 0.000000 0.000000 0.000000 0.000000 0.000000 
1.262674 17.099416 2.415644 -9.575387 -71.255023 24.145345 -10.149955 -0.546866 2.814937 -6.638519 -15.333023 -27.158927 -0.751581 0.575165 28.346913 2.504358 12.475679 -12.426484 -0.914200 0.000000 -32.171100 9.614061 0.781181 -2.367591 5.142127 -4.981061 -38.034939 -0.983834 -3.967726 59.380028 -4.121684 -23.248478 6.015290 -6.253301 -0.000000 -62.904500 -5.565823 -3.173388 2.079751 -1.721786 -2.925846 -2.265190 -5.700220 -2.913971 0.618344 10.451448 -16.282718 -9.102087 -0.633724 -0.013036 -0.479236 0.000000 0.000000 0.000000 4.435684 5.631854 1.373488 -42.895443 15.639917 31.261788 -1.458878 -68.026791 0.011490 -6.832407 -7.522299 0.457174 0.012216 0.103103 0.000000 0.000000 0.000000 0.000000 0.000000 0.000000 0.000000 5.998012 -12.833393 1.654612 56.609677 -7.937433 31.966693 1.738628 54.825422 0.015389 -0.166029 8.359454 -0.018255 0.095062 -0.103979 0.000000 0.000000 0.000000 0.000000 0.000000 0.000000 0.000000 
